<?xml version="1.0" encoding="utf-8"?>
<!-- Svg Vector Icons : http://www.onlinewebfonts.com/icon -->
<!DOCTYPE svg PUBLIC "-//W3C//DTD SVG 1.1//EN" "http://www.w3.org/Graphics/SVG/1.1/DTD/svg11.dtd">
<svg version="1.1" xmlns="http://www.w3.org/2000/svg" xmlns:xlink="http://www.w3.org/1999/xlink" x="0px" y="0px" viewBox="0 0 1000 1000" enable-background="new 0 0 1000 1000" xml:space="preserve">
<metadata> Svg Vector Icons : http://www.onlinewebfonts.com/icon </metadata>
<g><path d="M344.6,970.1C145.4,906.3,10,715.1,10,500c0-119.5,47.8-239,127.5-326.7l55.8,55.8C121.5,308.8,89.7,404.4,89.7,500c0,175.3,111.5,334.6,278.9,390.4L344.6,970.1z"/><path d="M33.9,109.6l326.7-31.9L225.1,372.5L33.9,109.6z"/><path d="M862.5,826.7l-63.7-55.8c63.7-71.7,103.6-167.3,103.6-270.9c0-175.3-111.5-334.6-278.9-390.4l23.9-79.7C854.6,109.6,990,292.8,990,500C990,619.5,942.2,739,862.5,826.7z"/><path d="M958.1,898.4l-318.7,31.9l135.4-294.8L958.1,898.4z"/></g>
</svg>