<?xml version="1.0" encoding="utf-8"?>
<!-- Generator: Adobe Illustrator 21.0.0, SVG Export Plug-In . SVG Version: 6.00 Build 0)  -->
<svg version="1.1" xmlns="http://www.w3.org/2000/svg" xmlns:xlink="http://www.w3.org/1999/xlink" x="0px" y="0px"
	 viewBox="0 0 1024 1024" style="enable-background:new 0 0 1024 1024;" xml:space="preserve">
<style type="text/css">
	.st0{fill:#2DB3D2;}
	.st1{fill:#020304;}
	.st2{fill:#040404;}
	.st3{font-family:'Noteworthy-Light';}
	.st4{font-size:120px;}
</style>
<!--<g id="Layer_5_xA0_Image_1_">-->
	<!--<g>-->
		<!--<circle class="st0" cx="513" cy="510" r="450"/>-->
	<!--</g>-->
<!--</g>-->
<g id="Layer_2_xA0_Image_1_">
	<!--<path class="st1" d="M807.6,509.7c0,50.8-0.1,101.6,0.1,152.5c0,5.2-1.7,8.7-6.3,11.3c-38.2,21.8-76.3,43.6-114.3,65.6-->
		<!--c-27.4,15.8-54.9,31.6-81.9,48c-18.4,11.2-35.8,24.1-54.4,35.1c-9.4,5.6-20.2,9.3-30.7,12.5c-15,4.6-29.1-0.4-42.8-6.6-->
		<!--c-19.8-9-36.8-22.3-55.1-33.8c-24.1-15.2-48.4-30.2-73-44.5c-40.8-23.8-81.9-47-122.9-70.5c-3-1.7-4.4-3.9-4.4-7.6-->
		<!--c0.2-46.3,0.2-92.6,0.2-138.9c0-45.5-0.1-90.9-0.1-136.4c0-10.3,0.2-20.7-0.1-31c-0.1-5.3,2-8.7,6.6-11.3-->
		<!--c47.5-27.1,94.8-54.4,142.4-81.3c32.3-18.2,63.2-38.3,93.9-59c15.7-10.6,32.4-19.6,51.7-22c12.8-1.6,24.6,1.9,35.4,7.8-->
		<!--c16.5,9.1,32.9,18.6,48.4,29.4c27.4,19.2,56.3,35.5,85.3,52.1c39.3,22.5,78.5,45,117.8,67.5c3.4,2,4.2,4.5,4.2,8.2-->
		<!--C807.6,407.7,807.7,458.7,807.6,509.7z M258.3,490c0,0-0.1,0-0.1,0c0,43.3-0.3,86.7,0.2,130c0.1,12.9,3.2,25.6,8.9,37.4-->
		<!--c9.4,19.5,25,33,43.5,43.2c17.3,9.5,35.3,17.7,52.6,27c31,16.6,61.9,33.3,92.5,50.6c20.2,11.4,40.1,23.4,59.8,35.7-->
		<!--c4.7,2.9,7.9,3,12.5,0.2c15.4-9.4,30.7-19.1,46.9-27.2c35.8-17.9,72.2-34.7,108.2-52.5c25.4-12.6,50.5-25.8,73.2-43.2-->
		<!--c13.1-10.1,21.9-21.3,19.5-39.6c-2.4-18.6-3.2-37.4-3.6-56.2c-0.6-26.8-0.3-53.6-0.3-80.5c0-43.5,0.2-87-0.2-130.5-->
		<!--c-0.1-5.8-2.2-12.3-5.4-17.3c-13.3-21.1-33.1-35.2-54.8-46.5c-20.4-10.6-41.5-19.8-61.9-30.4c-22.2-11.6-44.1-23.9-65.9-36.2-->
		<!--c-24.4-13.8-48.6-28-73-41.8c-1.6-0.9-4.6-0.8-6.2,0.2c-9.6,5.7-18.7,12-28.3,17.6c-26.5,15.4-53.3,30.4-79.9,45.7-->
		<!--c-44.3,25.4-88.6,51-133,76.3c-3.9,2.2-5.1,4.6-5.1,9C258.3,404.1,258.3,447.1,258.3,490z"/>-->
	<!--<g>-->
		<!--<g>-->
			<path class="st2" d="M274,415c-0.4-3-0.9-5.9-1-8.9c-0.2-4.8,3.2-8.1,8.1-8.2c1,0,2,0.1,3,0.2c6.4,1,12.8,2,19.2,3.1
				c12.1,2,24.3,3.9,36.4,5.9c15.2,2.5,30.5,5,45.7,7.5c13.4,2.2,26.9,4.3,40.3,6.4c17.9,2.8,35.7,5.7,52.6,12.6
				c10,4.1,19.7,8.9,28.8,14.7c1.9,1.2,3.9,2.5,5.6,3.5c7.5-4.2,14.5-8.6,21.9-12.4c17-8.6,35.1-13.8,54-16.6
				c13.5-2,26.9-4.4,40.3-6.6c11.5-1.8,23-3.5,34.5-5.4c13.1-2.1,26.2-4.2,39.4-6.3c11.5-1.9,22.9-3.7,34.4-5.6
				c2.1-0.3,4.3-0.6,6.4-1c5.5-1,10.7,3.2,9.5,10.1c-0.4,2.3-0.6,4.6-0.9,6.9c-2.3,12.2-4.7,24.4-7,36.6c-3.1,16.5-5.8,33-9.2,49.4
				c-2.3,10.9-6.6,21.2-12.1,30.9c-1.6,2.8-2.7,5.5-2.7,8.8c0.1,73.2,0.1,146.3,0.1,219.5c0,2.3,0,4.6,0,6.3c3.4,2.6,6.5,4.5,9.2,7
				c4.6,4.3,6.7,9.8,6.8,16.1c0.1,11,0.1,22,0,33c-0.2,13.2-10.9,23.5-24.2,23.4c-12.9-0.1-23.6-10.4-23.8-23.3
				c-0.2-10.7-0.1-21.3,0-32c0-10.3,4.7-17.7,13.8-22.5c0.3-0.2,0.6-0.2,0.9-0.4c0.3-0.1,0.5-0.4,1-0.7c0-69.3,0-138.7,0-208.5
				c-1,0.7-1.8,1.2-2.5,1.8c-16.3,15.1-35.1,25.5-56.6,31.1c-12.2,3.2-24.3,6.6-36.6,9.5c-21.8,5.2-43.2,3.2-64.1-4.8
				c-10.9-4.2-20.9-10.1-29.9-17.6c-0.5-0.4-1.1-0.7-1.9-1.2c-0.9,0.5-2,1-2.8,1.7c-15.7,12.8-33.8,20.3-53.6,23.5
				c-13.6,2.2-27.2,1.2-40.5-2.3c-13.5-3.5-27-6.8-40.4-10.7c-6-1.8-11.7-4.6-17.3-7.5c-22-11.4-40.2-27.1-53.7-48
				c-8.7-13.4-14-28.1-16.8-43.8c-3.4-19.4-7.1-38.8-10.7-58.3c-0.9-4.7-1.6-9.5-2.4-14.2C274.7,416.9,274.3,415.9,274,415z
				 M290.9,415.8c2.1,10.9,4,21,5.8,31.1c2.5,13.6,4.9,27.1,7.3,40.7c1.9,10.8,5.2,21.2,10.5,31c9.3,17.2,22.4,30.9,38.7,41.6
				c10,6.6,20.4,12.4,32.1,15.5c10.7,2.9,21.5,5.7,32.2,8.6c17.5,4.7,34.9,4.1,52.1-1.2c13.6-4.2,25.6-11.2,35.7-21.1
				c5.3-5.2,10.8-5.1,15.4,0.2c1.7,2,3.9,3.6,6,5.2c15.7,12.2,33.3,19,53.2,19.9c10.7,0.5,21.2-0.7,31.5-3.7
				c13.4-3.9,27.1-6.7,40.2-11.3c38.1-13.5,61.1-40.5,69.2-80c4.8-23.1,8.7-46.3,13-69.5c0.4-2.2,0.6-4.4,1-6.9
				c-7.9,1.2-15.3,2.3-22.6,3.5c-13.8,2.2-27.5,4.5-41.3,6.7c-13.4,2.2-26.9,4.4-40.3,6.5c-13.6,2.2-27.2,4.3-40.8,6.5
				c-11.2,1.8-22.1,4.3-32.8,8.2c-13.1,4.9-25.4,11.3-36.8,19.6c-6.4,4.6-8,4.5-14.7-0.1c-0.8-0.6-1.6-1.2-2.4-1.7
				c-12.5-8.7-26-15.2-40.5-19.9c-12.8-4.1-26.2-6-39.4-8.1c-11.5-1.8-22.9-3.7-34.4-5.6c-13.1-2.1-26.2-4.2-39.3-6.3
				c-13.9-2.2-27.9-4.5-41.8-6.7C302.3,417.5,296.9,416.7,290.9,415.8z M705,805.8c0,4.3,0,8.7,0,13c0,0.5,0,1,0,1.5
				c0.1,6.3,3,9.8,8.1,9.7c5-0.1,7.8-3.7,7.9-10c0-3.2,0-6.3,0-9.5c0-6.5-0.1-13,0-19.5c0-2.6-0.6-5-2.5-6.8
				c-2.4-2.2-5.2-2.9-8.3-1.7c-3.3,1.3-5.1,3.7-5.2,7.2C704.9,795.1,705,800.4,705,805.8z"/>
			<path class="st2" d="M651.6,480.8c5,4.4,10.2,5,16.1,3.4c4.4-1.2,8.5-2.9,12.3-5.2c5.9-3.6,8.7-8.9,9-15.7c0-0.5,0-1,0-1.5
				c0.3-4.6,3.7-7.8,8.1-7.8c4.4,0.1,7.8,3.3,7.9,8c0.3,11.9-4.1,21.8-13.8,28.9c-8.8,6.4-18.7,9.9-30.2,10.4
				c-3.3,3.9-6.9,8-10.3,12.3c-7.3,9.2-15.9,17-26.7,22c-17.6,8.1-35.6,8.8-53.7,1.9c-8.2-3.1-16.2-6.8-24.3-10.2
				c-0.2-0.1-0.3-0.1-0.5-0.2c-5.5-2.6-7.1-7.3-3.8-12.3c5.3-7.9,10.5-15.9,16.6-23.1c10.9-12.9,25-20.4,41.9-22.9
				c9.2-1.4,18.1-0.2,27.2,1.4c4.8,0.9,9.8,0.2,14.3-2.3c3.6-2,5.7-5.1,6.8-8.9c0.5-1.7,0.5-3.6,0.6-5.4c0.5-5,4.5-8.3,9.2-7.6
				c3.9,0.6,6.5,3.7,6.8,8.1c0.4,8.2-2.2,15.4-7.8,21.4C655.5,477.4,653.6,478.9,651.6,480.8z M560,515.9c6.4,2.6,11.8,5.2,17.4,7.1
				c18,6.1,34.7,3.2,49.8-8.3c6.7-5.1,11.3-12.1,17.2-18.5c-3.7-2-7-3.8-10.3-5.5c-9.4-4.8-19.2-7-29.8-5.9
				c-12.6,1.4-23.4,6.3-32,15.5C568,504.8,564.4,510.1,560,515.9z"/>
			<path class="st2" d="M380.7,479c-1.2-1.1-2.8-2.4-4.1-3.8c-5.4-6-7.8-13-7.5-21c0.2-4.7,3.4-7.9,7.8-8.1c3.9-0.2,8.1,3.2,8.3,8.2
				c0.3,8.3,3.7,13.1,10.6,15c2.6,0.7,5.7,1,8.3,0.4c20.9-4.4,40-0.4,56.9,12.6c4.7,3.6,8.8,8.1,12.6,12.8c4.8,5.9,9,12.4,13.3,18.7
				c4.2,6.1,2.9,10.9-4,13.9c-7.8,3.4-15.6,6.5-23.4,9.7c-26.8,10.9-57.3,2.6-75.2-17.5c-4.8-5.3-9.4-10.8-14-16.3
				c-1.7-2-3.6-3-6.3-3.5c-9-1.5-17.2-5.3-23.9-11.5c-7.6-7-11.2-15.9-10.9-26.3c0.1-4.7,3.4-8,7.8-8c4.6-0.1,8.2,3.2,8.2,8.2
				c0,8.8,4.4,14.7,11.9,18.6C365.1,485,373.1,486.5,380.7,479z M385.2,495.9c3,3.6,5.7,7.1,8.6,10.5c13.1,15.1,29.4,21.6,49.3,18.6
				c9.2-1.4,17.3-5.9,26-9.4c-3-4.3-5.5-8.2-8.4-11.8c-9.8-12.1-22.7-18.6-38.2-19.7C408.7,483.2,397,488.7,385.2,495.9z"/>
		<!--</g>-->
	<!--</g>-->
</g>
<!--<g id="Grani_x0D_">-->
	<!--<text transform="matrix(1 0 0 1 389.4429 724.2939)" class="st3 st4">Grani</text>-->
<!--</g>-->
<!--<g id="Teatr">-->
	<!--<text transform="matrix(1 0 0 1 378.9178 388.5938)" class="st3 st4">Teatr</text>-->
<!--</g>-->
</svg>
