<?xml version="1.0" encoding="utf-8"?>
<!-- Generator: Adobe Illustrator 21.0.0, SVG Export Plug-In . SVG Version: 6.00 Build 0)  -->
<svg version="1.1" id="Layer_1" xmlns="http://www.w3.org/2000/svg" xmlns:xlink="http://www.w3.org/1999/xlink" x="0px" y="0px"
	 viewBox="0 0 96 96" style="enable-background:new 0 0 96 96;" xml:space="preserve">
<style type="text/css">
	.st0{fill:#FFFFFF;}
</style>
<g>
	<g>
		<!--<path class="st0" d="M0.5,101.4c0-32.1,0-64.4,0-96.6c32.2,0,64.4,0,96.7,0c0,32.1,0,64.3,0,96.6C65,101.4,32.8,101.4,0.5,101.4z-->
			 <!--M60.1,83.5c5.1,0,9.8,0,14.6,0c2.9,0,3.9-1.7,3.9-4.4c0-17.1,0-34.2,0-51.3c0-3-1.4-4.3-4.3-4.3c-17.1,0-34.2,0-51.3,0-->
			<!--c-2.9,0-4.4,1.3-4.4,4.3c0,17.1,0,34.2,0,51.3c0,3.2,1.5,4.4,4.6,4.4c8.5-0.1,17,0,25.5,0c0.6,0,1.2-0.2,1.8-0.3-->
			<!--c0-7.7,0-15.1,0-22.7c-2.6-0.1-5-0.3-7.5-0.4c0-3,0-5.7,0-8.6c2.6-0.1,5-0.3,7.7-0.4c0-2.4,0-4.5,0-6.6-->
			<!--c0.2-7.6,4.3-11.7,11.9-11.8c7-0.1,7.1,0,6.6,7c0,0.4-0.2,0.7-0.2,0.7c-2.9,0.8-6.6,0.7-8,2.4c-1.5,1.9-1,5.5-1.4,8.7-->
			<!--c3.6,0,6.3,0,9.3,0c-0.4,3.2-0.8,5.9-1.3,9c-2.7,0-5,0-7.5,0C60.1,68.1,60.1,75.6,60.1,83.5z"/>-->
		<path d="M60.1,83.5c0-7.9,0-15.4,0-23.1c2.5,0,4.9,0,7.5,0c0.4-3,0.8-5.8,1.3-9c-3,0-5.7,0-9.3,0c0.4-3.3-0.2-6.9,1.4-8.7
			c1.4-1.7,5.1-1.6,8-2.4c0,0,0.2-0.4,0.2-0.7c0.5-6.9,0.4-7.1-6.6-7c-7.6,0.1-11.8,4.2-11.9,11.8c0,2.1,0,4.2,0,6.6
			c-2.7,0.1-5.1,0.3-7.7,0.4c0,2.9,0,5.6,0,8.6c2.5,0.1,4.9,0.3,7.5,0.4c0,7.6,0,15.1,0,22.7c-0.6,0.1-1.2,0.3-1.8,0.3
			c-8.5,0-17,0-25.5,0c-3.1,0-4.6-1.2-4.6-4.4c0-17.1,0-34.2,0-51.3c0-3,1.4-4.3,4.4-4.3c17.1,0,34.2,0,51.3,0c3,0,4.3,1.3,4.3,4.3
			c0,17.1,0,34.2,0,51.3c0,2.7-1,4.3-3.9,4.4C69.9,83.5,65.2,83.5,60.1,83.5z"/>
	</g>
</g>
</svg>
